<svg width="168" height="168" fill="none" xmlns="http://www.w3.org/2000/svg"><path fill-rule="evenodd" clip-rule="evenodd" d="M153.11.5h.32l.78.04c.11 0 .23.01.34.03l.75.1.35.07.73.17.34.1.7.25.34.14.67.32.32.17.64.4c.1.05.2.12.29.19l.61.46.25.21.59.53.22.22.55.6c.06.07.13.14.18.22l.53.67.15.21.5.74.12.2.46.81.1.2.44.87.08.18.4.94.06.17.37 1 .06.16.33 1.07.05.14.3 1.14.04.13.27 1.2.03.12.24 1.26.01.06.01.05.22 1.32.01.1.18 1.38.01.1.15 1.44.01.09.12 1.5v.07l.09 1.56a.6.6 0 0 0 0 .04v.03l.06 1.61v.07l.02 1.66v.07l-.01 1.7v.07l-.04 1.76v.06l-.08 1.81v.06l-.1 1.85-.01.03v.03l-.14 1.9v.05l-.17 1.94v.05l-.21 1.99v.04l-.24 2.03v.04l-.27 2.06v.05l-.3 2.1v.04l-.34 2.13v.04l-.36 2.17v.04l-.4 2.19v.04l-.43 2.22v.04l-.46 2.25v.03l-.49 2.28v.03l-.52 2.3v.03l-.55 2.32v.03l-.58 2.34-.01.03-.6 2.35-.01.04-.63 2.36-.01.03-.66 2.38-.01.03-.7 2.39v.03l-.72 2.4-.02.02-.74 2.4-.01.04-.74 2.28.07.24.02.03.77 2.4v.04l.75 2.4.01.03.72 2.39v.03l.7 2.38v.04l.66 2.37.01.03.63 2.36v.04l.6 2.34.01.04.57 2.33.01.04.54 2.3v.04l.52 2.3v.03l.48 2.27v.04l.46 2.24v.04l.42 2.22v.04l.4 2.19v.04l.35 2.16v.04l.33 2.13v.04l.3 2.09v.04l.27 2.06v.05l.23 2.01v.05l.2 1.98v.05l.17 1.94v.05l.14 1.89v.05l.1 1.85v.06l.07 1.8v.06l.04 1.75v1.84l-.02 1.65v.07l-.06 1.6v.08l-.1 1.54v.08l-.12 1.5-.01.08-.16 1.43v.1l-.2 1.37-.01.1-.22 1.31-.02.11-.25 1.26-.02.12-.29 1.19a3.1 3.1 0 0 1-.03.13l-.31 1.13-.04.14-.35 1.06-.05.16-.38 1-.07.16-.4.93a4.2 4.2 0 0 1-.09.18l-.43.87-.06.1-.05.09-.47.8a2.7 2.7 0 0 1-.13.2l-.5.73c-.04.08-.1.15-.15.21l-.53.66-.19.22-.56.6-.22.21-.59.52-.26.2-.62.46-.29.2-.65.37-.31.17-.68.3c-.11.06-.22.1-.34.14l-.7.24-.35.1-.74.16-.34.06-.76.1-.33.02-.8.02h-.3l-.82-.06c-.1 0-.2-.01-.29-.03l-.84-.12a3.8 3.8 0 0 1-.26-.05l-.87-.2a4.64 4.64 0 0 1-.24-.05l-.9-.27a3.82 3.82 0 0 1-.2-.07l-.93-.33a4.06 4.06 0 0 1-.18-.08l-.95-.4-.16-.08-.98-.48-.14-.07-1-.55a3.1 3.1 0 0 1-.13-.07l-1.02-.62-.11-.07-1.05-.69-.1-.06-1.08-.76a2.37 2.37 0 0 1-.08-.07l-1.1-.82a1.45 1.45 0 0 1-.08-.06l-1.12-.9-.07-.05-1.14-.96-.07-.05-1.16-1.02-.06-.06-1.19-1.08-.05-.05-1.2-1.15-.05-.05-1.23-1.21a.8.8 0 0 1-.04-.04l-1.25-1.28a1.33 1.33 0 0 1-.04-.04l-1.27-1.34-.03-.03-1.29-1.4-.03-.03-1.3-1.46-.04-.03-1.32-1.5-.03-.04-1.34-1.56-.03-.03-.11-.14-.8.9-.03.03-.03.03-1.43 1.54-.05.06-1.45 1.49-.04.04-.02.02-1.46 1.43-.06.06-1.47 1.37-.04.04-.03.02-1.48 1.31-.04.03c-.01.01-.02.03-.04.03l-1.5 1.25-.07.07-1.5 1.19-.09.06-1.51 1.12a6.7 6.7 0 0 1-.1.07l-1.52 1.06-.1.06-1.53 1a5.3 5.3 0 0 1-.1.06l-1.54.93-.1.06-1.56.86-.06.04-.05.02-1.56.8-.1.04-.01.01-1.57.73a2.7 2.7 0 0 1-.12.05l-1.58.66a3 3 0 0 1-.12.05l-1.58.6c-.05 0-.1.02-.14.04l-1.58.52-.14.04-1.59.45-.14.03-1.59.38-.15.03-1.6.3-.08.02-.06.01-1.6.24-.09.01h-.06l-1.6.17-.16.01-1.6.1a2.68 2.68 0 0 1-.15 0l-1.6.02h-.16l-1.6-.06h-.16l-1.6-.13-.15-.02-1.6-.2c-.05 0-.1 0-.15-.02l-1.6-.26a1.41 1.41 0 0 1-.15-.03l-1.6-.34-.07-.02-.07-.02-1.59-.4-.14-.05-1.58-.48a3.3 3.3 0 0 1-.14-.04l-1.58-.56a2.71 2.71 0 0 1-.13-.05l-1.58-.62a2.96 2.96 0 0 1-.12-.05l-1.57-.7a4.83 4.83 0 0 1-.12-.05l-1.56-.76a.93.93 0 0 1-.12-.05l-1.55-.83a14.9 14.9 0 0 1-.11-.06l-1.55-.9a3.87 3.87 0 0 1-.1-.06l-1.54-.96a3.58 3.58 0 0 1-.1-.06l-1.53-1.03-.06-.04-.03-.02-1.52-1.1a1.35 1.35 0 0 1-.05-.03l-.03-.03-1.51-1.15a9.3 9.3 0 0 1-.09-.06l-1.5-1.22a2.75 2.75 0 0 1-.07-.06l-1.49-1.28a2.57 2.57 0 0 1-.07-.07l-1.48-1.34a2.51 2.51 0 0 1-.06-.06l-1.47-1.4a2.22 2.22 0 0 1-.06-.06l-1.45-1.45a6.47 6.47 0 0 1-.06-.06l-1.43-1.52a2.21 2.21 0 0 1-.06-.06l-1.42-1.56a1.49 1.49 0 0 1-.04-.05l-1.16 1.35-.02.03-1.34 1.52-.02.03-1.32 1.47-.03.03-1.29 1.4-.03.04-1.28 1.35-.03.04-1.26 1.28a1.2 1.2 0 0 1-.04.04l-1.23 1.23-.05.04-1.21 1.16-.05.05-1.2 1.1-.05.05-1.17 1.03-.04.04-.02.02-1.15.97-.07.05-1.13.9a2.8 2.8 0 0 1-.07.06l-1.1.84-.1.06-1.07.77-.07.05s-.02 0-.03.02l-1.05.7-.11.06-1.03.64-.13.07-1 .56-.14.07-.99.49-.15.07-.96.42a5.2 5.2 0 0 1-.18.08l-.93.34-.2.07-.91.28-.23.06-.88.2c-.08.03-.16.04-.25.06l-.85.13-.28.03-.83.07h-1.1l-.33-.03-.77-.08a3.56 3.56 0 0 1-.34-.05l-.74-.15a3.42 3.42 0 0 1-.34-.1l-.72-.22a3.42 3.42 0 0 1-.34-.13l-.68-.3a3.5 3.5 0 0 1-.32-.15l-.66-.37-.3-.19-.62-.44a3.6 3.6 0 0 1-.26-.2l-.6-.51a3.45 3.45 0 0 1-.23-.22l-.56-.58a3.34 3.34 0 0 1-.2-.22l-.53-.65a3.27 3.27 0 0 1-.16-.2l-.51-.73c-.05-.06-.1-.13-.13-.2l-.48-.79a3.59 3.59 0 0 1-.1-.2l-.45-.85a3.8 3.8 0 0 1-.1-.18l-.4-.92a3.17 3.17 0 0 1-.07-.17l-.39-.99-.05-.15-.36-1.06-.04-.14-.32-1.12a3.27 3.27 0 0 1-.04-.13l-.28-1.18a3.66 3.66 0 0 1-.03-.12l-.26-1.25-.02-.1-.23-1.31-.01-.1-.2-1.37-.01-.1-.16-1.42-.01-.09-.13-1.48v-.08l-.1-1.54-.01-.07-.07-1.6v-.07l-.03-1.64v-1.83l.02-1.74v-.06l.07-1.8v-.05l.1-1.84v-.06l.12-1.89v-.05l.16-1.93v-.05l.2-1.97v-.05l.22-2v-.06l.26-2.05v-.04l.29-2.09v-.04l.32-2.12v-.04l.35-2.16v-.04l.39-2.18v-.04l.41-2.21.01-.04.44-2.24v-.04l.48-2.27v-.03l.5-2.29.01-.04.54-2.3v-.04l.57-2.33v-.03l.6-2.35v-.03l.62-2.36.01-.04.65-2.37.01-.03.68-2.38.01-.04.71-2.38.01-.04.74-2.4v-.03l.77-2.4.02-.03.2-.63-.33-1.02-.01-.03-.76-2.4-.01-.03-.73-2.4-.02-.03-.7-2.39v-.03l-.68-2.38-.01-.04-.65-2.37v-.03l-.62-2.36-.01-.03-.59-2.34v-.04l-.56-2.32-.01-.04-.53-2.3v-.04l-.5-2.29-.01-.03-.47-2.26v-.04l-.44-2.24v-.04l-.41-2.2v-.05l-.38-2.18v-.04l-.35-2.14v-.05l-.31-2.11-.01-.05-.28-2.08v-.04l-.25-2.05v-.04l-.22-2v-.06l-.2-1.96v-.05L.8 35.46v-.06l-.12-1.88v-.05l-.1-1.83v-.06l-.05-1.79v-.06L.5 28v-1.75l.01-.07.04-1.63v-.08l.07-1.58v-.08l.11-1.52v-.09l.14-1.47.01-.09.17-1.41.01-.1.2-1.35.02-.1.23-1.3.02-.12.27-1.23.02-.12.3-1.17.03-.14.33-1.1.05-.15.35-1.04.06-.16.39-.98L3.4 9l.42-.9.1-.2.44-.84.11-.2.48-.77.14-.2.51-.71.17-.22.54-.64.2-.21.57-.57.24-.22.6-.5.27-.2.63-.43.3-.18.66-.36.32-.15.69-.29.34-.12.72-.21c.11-.04.22-.06.34-.09l.75-.14.34-.05.77-.07.32-.01h.8l.3.01.84.08.27.03.86.15.25.05.88.22c.08.01.15.04.23.06l.9.29.2.07.94.36.18.07.96.43.15.07.99.5.13.08 1.02.57.12.07 1.03.64.1.07 1.07.71.1.07 1.08.78.08.06 1.1.85.08.05 1.13.92.07.05 1.15.98.06.05 1.18 1.05.05.05 1.2 1.1.05.05 1.21 1.18.05.04 1.24 1.23.04.04 1.25 1.3.03.02.01.02 1.28 1.35c0 .02.02.03.03.04l1.3 1.42.03.03 1.31 1.47.03.03 1.33 1.53.03.03.94 1.1.22-.25.05-.06 1.43-1.56.05-.06 1.44-1.5.06-.06 1.45-1.45a4 4 0 0 1 .07-.06l1.46-1.39.07-.06 1.48-1.33.07-.06 1.49-1.27.08-.07 1.5-1.2.08-.07 1.51-1.14.09-.06 1.52-1.09.1-.06 1.52-1.02.1-.06 1.54-.95.1-.06 1.55-.88.11-.06 1.56-.82.11-.06 1.57-.75.12-.05 1.57-.68.12-.05 1.58-.61.13-.05 1.58-.54.14-.05 1.59-.47.14-.04 1.59-.4.15-.03 1.59-.33.15-.03 1.6-.25.15-.03 1.6-.18.15-.02 1.6-.1.16-.02 1.6-.04h.16l1.6.03h.15l1.6.11.16.01 1.6.18.15.02 1.6.24.15.03 1.59.32.15.03 1.59.39.14.04 1.59.46c.04 0 .09.02.14.04l1.58.53.13.05 1.58.6.13.05 1.57.67.12.05 1.56.74.12.06 1.56.8.1.06 1.56.88.1.06 1.55.94.1.06 1.53 1 .1.07 1.52 1.07.08.06 1.52 1.14.08.06 1.5 1.2.08.06 1.5 1.26a5 5 0 0 1 .06.06l1.49 1.32.06.06 1.47 1.38.07.07 1.45 1.43.06.06 1.44 1.5.06.06 1.43 1.55.05.06.57.64.33-.4.03-.02 1.34-1.56.02-.03 1.33-1.5.03-.03 1.3-1.45.03-.03 1.29-1.39a.96.96 0 0 1 .03-.04l1.27-1.32.04-.04 1.24-1.27.04-.04 1.23-1.2.05-.05 1.2-1.14.05-.05 1.19-1.08.06-.05 1.16-1.01.06-.06 1.14-.95.07-.05 1.12-.88.08-.07 1.1-.8a3 3 0 0 1 .08-.07l1.07-.75.1-.07L143.1 4l.11-.07 1.02-.61.13-.07 1-.54.14-.08.98-.46.16-.08.95-.4.18-.07.92-.32.22-.07.89-.25.24-.06.87-.19.26-.04.84-.11.29-.03.81-.04Zm-33.64 27.05-1.3-1.48-1.37-1.5-1.39-1.43-1.4-1.37-1.4-1.32-1.4-1.26-1.43-1.2-1.42-1.13-1.43-1.07-1.44-1.01-1.44-.95-1.44-.88-1.44-.8-1.45-.76-1.45-.68-1.44-.62-1.45-.55-1.45-.48-1.45-.42-1.44-.35L89.59 8l-1.44-.22-1.44-.16-1.45-.1-1.44-.02-1.44.04-1.44.1-1.45.17-1.44.23-1.45.3-1.44.36-1.45.43-1.44.5-1.45.56-1.45.63-1.45.69-1.44.76-1.44.82-1.45.89-1.43.95-1.44 1.02-1.43 1.08-1.42 1.15-1.42 1.2-1.4 1.27-1.4 1.33-1.4 1.39-1.38 1.44-1.37 1.5-.96 1.1.11.14.02.03 1.42 1.79.01.02 1.43 1.83.02.02 1.44 1.88.01.02 1.46 1.93.01.01 1.47 1.97.02.02 1.48 2v.02l1.5 2.04.01.02 1.5 2.08.02.01 1.51 2.12.01.01 1.54 2.16 1.54 2.2 1.55 2.21 1.56 2.25 1.56 2.27 1.57 2.3 1.58 2.3 1.58 2.34 3.17 4.7 1.6 2.38 4.83 7.22 5.58-8.35v-.01l1.6-2.37 1.58-2.35 1.59-2.35 1.57-2.31 1.58-2.31 1.56-2.28 1.56-2.26 1.56-2.23 1.54-2.2.01-.02 1.53-2.16v-.01l1.53-2.14v-.01l1.52-2.1v-.02l1.5-2.06.02-.02 1.48-2.02.02-.02 1.47-1.99.01-.01 1.47-1.95v-.02l1.46-1.9.01-.02 1.44-1.86.01-.02 1.43-1.81.01-.02.76-.95ZM79.85 84l-6.43-9.63L71.83 72l-3.16-4.68L67.1 65l-1.57-2.3-1.56-2.28-1.55-2.25-1.55-2.23-1.53-2.2h-.01l-1.52-2.17-1.52-2.14-1.5-2.1-.01-.01-1.49-2.06-.01-.01-1.47-2.02-.01-.01-1.46-1.98-.02-.02-1.45-1.94-1.44-1.9L46 35.5 44.6 33.7l-.56-.7-1.2 1.62-1.3 1.8-1.27 1.86-1.25 1.9-1.25 1.95-1.22 1.98-1.2 2.02-1.19 2.06L33 50.28l-1.15 2.13-1.12 2.15-1.1 2.19-1.09 2.2-1.06 2.24-1.03 2.26-1.01 2.28-1 2.3-.96 2.31-.93 2.33-.92 2.34-.89 2.35-.86 2.36-.83 2.36-.66 1.92.53 1.55.83 2.36.86 2.36.88 2.35.9 2.34.94 2.33.96 2.31.99 2.3 1 2.28 1.04 2.27 1.05 2.24 1.08 2.21 1.1 2.2 1.12 2.15 1.14 2.13 1.16 2.1 1.19 2.06 1.2 2.03 1.22 2 1.24 1.94 1.25 1.9 1.27 1.87 1.3 1.82 1.3 1.77.1.13.33-.4.01-.02 1.4-1.8.01-.01 1.41-1.84.02-.02 1.43-1.88v-.01l1.45-1.93.01-.02 1.46-1.97.01-.01 1.47-2.01.01-.02 1.49-2.05 1.5-2.1h.01l1.5-2.13.02-.01 1.51-2.16h.01l1.53-2.2 1.54-2.22h.01l1.55-2.25 1.56-2.28L67.1 103l1.58-2.32 1.58-2.34 3-4.46 6.6-9.87Zm-.87 13.9.1-.14.41-.62 4.58-6.84 5.32 7.98 3.19 4.73 1.58 2.34 1.58 2.32 1.57 2.31 1.58 2.3 1.55 2.25h.01l1.55 2.23v.02l1.55 2.2 1.53 2.18h.01l1.52 2.15.01.01 1.52 2.1v.02l1.5 2.07.02.02 1.49 2.03v.01l1.48 2 .02.02 1.46 1.95.01.02 1.46 1.9.01.03 1.44 1.86.01.02 1.43 1.82.01.03.99 1.23-.15.18-1.37 1.54-1.37 1.48-1.39 1.43-1.4 1.37-1.4 1.3-1.41 1.25-1.42 1.2-1.43 1.12-1.43 1.06-1.44 1-1.44.93-1.44.87-1.44.8-1.45.74-1.45.67-1.44.6-1.45.55-1.45.47-1.45.4-1.44.35-1.45.28-1.44.21-1.44.15-1.45.08-1.44.02-1.44-.05-1.44-.11-1.45-.18-1.44-.25-1.45-.3-1.44-.38-1.45-.44-1.45-.5-1.44-.57-1.45-.64-1.45-.7-1.44-.77-1.44-.84-1.44-.9-1.44-.96-1.43-1.03-1.43-1.1-1.42-1.15-1.42-1.21-1.4-1.28-1.4-1.34-1.4-1.4-1.38-1.45-1.37-1.5-.74-.86 1.32-1.66.01-.03 1.43-1.82.02-.02 1.44-1.88.01-.02 1.46-1.91v-.02l1.48-1.96v-.02l1.49-2 .01-.01 1.5-2.04v-.02l1.5-2.07.02-.02 1.51-2.1v-.02l1.53-2.15h.01l1.53-2.18.01-.01 1.54-2.2.01-.02 1.55-2.23v-.01l1.56-2.26.1-.14h.01l3.04-4.46.27-.39.24-.36 1.07-1.58.26-.38.25-.37 1.08-1.6.26-.38.24-.36 1.1-1.62 1.58-2.36ZM39.5 140.6l-1.14-1.5a1.59 1.59 0 0 1-.04-.05l-1.34-1.82a8.22 8.22 0 0 1-.04-.05l-1.32-1.87a5.14 5.14 0 0 1-.04-.05l-1.3-1.91-.04-.05-1.29-1.95c0-.02-.02-.04-.03-.05l-1.26-2-.03-.04-1.25-2.04-.03-.05-1.23-2.07-.02-.04-1.21-2.11-.03-.04-1.18-2.15-.03-.04-1.16-2.17-.02-.04-1.15-2.2c0-.02 0-.03-.02-.05l-1.12-2.23-.02-.04-1.1-2.25-.01-.04-1.07-2.28-.02-.04-1.05-2.3-.02-.04-1.02-2.32-.02-.03-1-2.34-.02-.04-.97-2.35-.02-.04-.94-2.36-.02-.04-.92-2.38-.02-.03v-.02l-.33 1.15-.64 2.34-.61 2.32-.58 2.31-.56 2.3-.52 2.27-.5 2.25-.46 2.22-.43 2.2-.4 2.18-.37 2.15-.34 2.11-.3 2.08L8.6 125l-.24 2-.22 1.97-.18 1.93-.16 1.87-.12 1.84-.09 1.78-.06 1.74-.03 1.68v1.63l.04 1.57.06 1.52.1 1.45.12 1.4.15 1.32.18 1.27.2 1.19.24 1.13.26 1.05.28.98.3.9.32.82.33.75.35.67.36.58.35.51.36.44.36.36.35.3.34.24.35.2.35.15.37.12.4.08.43.05h.48l.53-.04.59-.09.63-.15.7-.2.74-.29.79-.34.83-.42.88-.49.92-.56.95-.63 1-.7 1.01-.78 1.06-.84 1.09-.92 1.11-.98L28.9 152l1.17-1.11 1.2-1.19 1.2-1.24 1.25-1.31 1.26-1.37 1.28-1.44 1.3-1.47.02-.03 1.3-1.52.02-.02.6-.71ZM14.93 72.92l.15-.4.02-.04.92-2.37.02-.04.95-2.36.02-.04.97-2.35.02-.04 1-2.33.02-.04 1.03-2.32.02-.03 1.05-2.3.02-.04 1.07-2.28.02-.04 1.1-2.25.02-.04 1.13-2.22.02-.04 1.14-2.2.03-.04 1.16-2.17.03-.04 1.19-2.14.02-.04 1.21-2.1a3.43 3.43 0 0 1 .03-.05l1.23-2.07.03-.04 1.25-2.03.03-.05 1.27-1.99.03-.05 1.3-1.95.03-.05 1.3-1.9.04-.05 1.33-1.86.02-.03.02-.02 1.34-1.82.04-.05.92-1.2-.39-.47-1.33-1.55-1.3-1.5-1.29-1.44-1.26-1.38-1.25-1.32-1.22-1.26-1.2-1.2-1.16-1.12-1.15-1.06-1.12-1-1.09-.93-1.06-.85-1.03-.79-1-.71-.95-.65-.93-.57-.88-.5-.84-.43-.8-.35-.75-.3-.7-.21-.65-.16-.59-.1-.54-.05h-.49l-.44.04-.4.08-.37.1-.36.15-.34.2-.35.23-.35.29-.35.35-.36.42-.36.5-.35.57-.35.66-.34.73-.32.81-.3.9-.29.96-.26 1.04-.24 1.12-.21 1.18L8 19.09l-.16 1.32-.13 1.38-.1 1.45-.06 1.5-.04 1.57v1.62l.01 1.67.06 1.73.08 1.78.12 1.82.15 1.87.18 1.92.21 1.96.24 2 .27 2.03.3 2.08.34 2.1.37 2.14.4 2.17.42 2.2.46 2.23.49 2.24.52 2.27.55 2.3.57 2.3.61 2.32.64 2.33.43 1.53Zm113.57 67.53.92 1.1.03.02 1.29 1.51.02.03 1.3 1.47 1.27 1.42 1.25 1.36 1.24 1.3 1.21 1.24 1.19 1.17 1.16 1.1 1.14 1.05 1.1.97 1.08.9 1.05.84 1.02.76.98.7.95.62.9.55.88.47.82.4.78.34.73.27.68.2.63.14.57.08.52.04.47-.02.43-.05.39-.09.36-.12.35-.16.34-.2.34-.25.35-.3.35-.38.36-.45.36-.52.35-.6.34-.68.33-.75.32-.84.3-.92.27-.99.25-1.06.23-1.14.2-1.2.17-1.28.14-1.34.12-1.4.09-1.47.05-1.52.03-1.58v-1.64l-.04-1.7-.07-1.73-.1-1.8-.13-1.84-.16-1.88-.19-1.93-.22-1.97-.26-2.02-.28-2.05-.32-2.08-.35-2.14-.37-2.11v-.04l-.4-2.14-.02-.04-.43-2.17v-.03l-.47-2.2v-.04l-.5-2.21v-.04l-.53-2.24v-.04l-.56-2.25v-.04l-.59-2.28v-.03l-.61-2.3-.02-.03-.63-2.3-.01-.03-.23-.8-.46 1.2-.02.04-.94 2.37v.04l-.97 2.36-.02.03-.99 2.35-.01.04-1.02 2.33-.01.03-1.04 2.31-.02.04-1.06 2.3-.02.03-1.09 2.27-.02.04-1.1 2.24-.03.04-1.13 2.22-.02.04-1.16 2.2-.02.03-1.17 2.16-.03.04-1.2 2.13-.02.04-1.22 2.1-.03.04-1.24 2.05c0 .02-.02.04-.03.05l-1.25 2.02-.03.05-1.28 1.97-.02.03-.02.02-1.3 1.94-.03.04-1.31 1.9a.8.8 0 0 1-.04.05l-1.33 1.84-.03.03-.01.03-1.36 1.8-.04.05-.37.47Zm24.5-67.5-.3-.82-.02-.03-.93-2.38-.02-.03-.95-2.37-.02-.03-.98-2.35-.02-.04-1.01-2.33-.02-.04-1.03-2.31-.02-.04-1.06-2.3-.02-.03-1.08-2.27-.02-.04-1.1-2.25-.03-.04-1.12-2.22-.01-.02-.02-.02-1.15-2.2-.02-.04-1.17-2.16-.03-.05-1.19-2.13-.01-.01-.02-.03-1.21-2.1-.03-.04-1.23-2.06-.03-.05-1.26-2.02c0-.02-.02-.03-.03-.05l-1.27-1.98-.04-.05-1.3-1.94v-.02l-.02-.03-1.32-1.9-.01-.02-.02-.03-1.34-1.85-.03-.06-1.35-1.8-.04-.06-.6-.76 1.14-1.36 1.33-1.54 1.29-1.46 1.27-1.41 1.25-1.35 1.23-1.3 1.21-1.22 1.19-1.16 1.15-1.1 1.13-1.03 1.1-.96 1.08-.9 1.04-.82 1.02-.75.97-.68.95-.61.9-.54.86-.46.82-.4.77-.32.73-.26.67-.19.62-.13.56-.07.51-.03.46.02.42.06.39.1.35.12.35.17.34.2.35.26.35.32.35.39.36.45.35.54.35.6.34.7.33.77.31.85.3.93.27 1 .25 1.08.22 1.15.2 1.21.16 1.29.15 1.35.1 1.41.09 1.48.05 1.53.02 1.59-.01 1.65-.04 1.7-.07 1.75-.1 1.8-.14 1.84-.17 1.9-.2 1.93-.22 1.98-.26 2.02-.29 2.05-.32 2.1-.36 2.14-.37 2.11-.01.04-.4 2.15-.01.04-.44 2.17v.04l-.48 2.2v.03l-.5 2.23v.03l-.54 2.24v.04l-.56 2.26v.04l-.6 2.28v.03l-.62 2.3v.03l-.65 2.3v.04l-.13.42Zm-4.24 8.74-.83-2.33-.01-.03-.86-2.32-.01-.04-.88-2.31-.01-.04-.91-2.3-.01-.04-.94-2.28-.01-.04-.95-2.28-.02-.03-.99-2.28-1.01-2.28-1.04-2.25-1.07-2.23-1.09-2.21-1.1-2.18-1.13-2.15-1.15-2.12-1.17-2.1-1.2-2.04-1.2-2.02-1.23-1.97-1.25-1.94-1.26-1.9-1.28-1.84-1.3-1.8-.88-1.2-1.17 1.49-.02.02-1.4 1.82-.02.02-1.42 1.87-.01.01-1.44 1.92-.01.01-1.45 1.96-.01.01-1.47 2-.01.02-1.48 2.03v.02l-1.5 2.07v.01l-1.51 2.11-.01.02-1.52 2.14v.01l-1.53 2.18-1.54 2.21v.01l-1.55 2.24-1.56 2.26-1.56 2.3-1.57 2.3-1.58 2.34-1.58 2.34-1.58 2.35v.01L88.26 84l6.94 10.38 3.17 4.71 1.58 2.34 1.57 2.3 1.56 2.3 1.56 2.27 1.55 2.24v.01l1.54 2.21v.01l1.54 2.18v.01l1.52 2.15v.01l1.51 2.12.01.01 1.5 2.08v.02l1.48 2.04.01.01 1.47 2 .01.02 1.46 1.97v.01l1.45 1.92.01.02 1.43 1.88.01.01 1.4 1.83.02.02 1.4 1.78.68-.91 1.3-1.8 1.28-1.84 1.27-1.89 1.24-1.92 1.23-1.97 1.22-2.01 1.19-2.05 1.17-2.08 1.16-2.12 1.13-2.14 1.11-2.18 1.09-2.2 1.07-2.23 1.04-2.25 1.01-2.26 1.02-2.33.96-2.27.01-.04.94-2.28.01-.04.91-2.3.01-.03.89-2.32.01-.03.86-2.32.01-.04.84-2.32v-.04l.82-2.32v-.04l.1-.3-.78-2.27-.01-.03Z"/><style>path { fill: #000; } @media (prefers-color-scheme: dark) { path { fill: #FFF; }}</style></svg>
